# xmcd
#
# Track frame offsets: 
#        150
#        18112
#        38662
#        54449
#        68811
#        84591
#        95334
#        109555
#
# Disc length: 1658 seconds
#
# Revision: 0
# Processed by: cddbd v1.5.2PL0 Copyright (c) Steve Scherf et al.
# Submitted via: ExactAudioCopyFreeDBPlugin 1.0
#
DISCID=54067808
DTITLE=SOULGAUGE - Demo Vo.1
DYEAR=2013
DGENRE=Blues
TTITLE0=メローサンセット
TTITLE1=ルパン三世のテーマ80
TTITLE2=丸の内サディスティック
TTITLE3=雨～Shower Rain～
TTITLE4=Do Runnnig
TTITLE5=スウィングしなけりゃ意味がない
TTITLE6=花火
TTITLE7=夜空のムコウ
EXTD=
EXTT0=
EXTT1=
EXTT2=
EXTT3=
EXTT4=
EXTT5=
EXTT6=
EXTT7=
PLAYORDER=
